<svg viewBox="188.61 153.09 253.37 190.6" xmlns="http://www.w3.org/2000/svg" role="img" aria-label="Carte de l'Occitanie, presence a Ipsum Media dans le Tarn et projet en Haute-Garonne">
<defs><linearGradient id="mapGradTarn" x1="0%" y1="0%" x2="100%" y2="100%"><stop offset="0%" stop-color="#EE802F"/><stop offset="100%" stop-color="#E7436E"/></linearGradient></defs>
<g transform="translate(22.54324,-205.37902)">
<path id="departement13" style="fill:#F2EDEA;stroke:#D8D0CA;stroke-width:0.5;stroke-linejoin:round" d="m 405.03333,437.23333 -5.83333,3.33334 -1.5,11.2 -6.16667,-0.86667 -1.76666,4.7 1.46666,2.06667 -6.76666,4.13333 -1.86667,4.33333 6.6,0.3 8.76667,0.63334 1.66666,1.66666 H 396.5 l -2.06667,3.53334 8.93334,1.86666 7.1,-1.23333 -3.76667,-3.56667 2.5,-2.06666 3.96667,1.66666 1.86666,3.96667 11.9,0.2 3.1,-1.26667 0.63334,1.9 -3.33334,2.9 4.6,0.2 -0.83333,2.1 -1.26667,1.46667 h 10.2 l 5,1.66667 0.5,0.66666 0.2,-4.13333 1.5,-1.7 1.9,-1.13333 -0.2,-1.13334 -1.5,-1.5 h -1.5 L 444.96667,472 l 1.7,-1.53333 V 469.9 L 444.8,468.96667 v -1.5 l 4.13333,0.2 L 449.9,466.9 l -3.6,-3.4 0.2,-3.96667 -2.26667,-1.86666 L 446.1,453.9 l 4.53333,-3.03333 -3.4,-2.26667 -2.43333,1.9 -5.66667,1.3 -4.53333,-0.56667 -8.1,-3.36666 -4.9,0.16666 -4.13333,-1.86666 -1.53334,-2.1 -3.2,-3.56667 -7.53333,-3.2 z" />
<path id="departement84" style="fill:#F2EDEA;stroke:#D8D0CA;stroke-width:0.5;stroke-linejoin:round" d="M 412.8,406.76667 409.86667,407 407.6,410.53333 l 0.6,3.73334 3.53333,0.43333 -0.6,1.66667 -2.73333,0.2 -3.1,3.13333 -0.83333,-1.03333 0.6,-4.16667 -1.23334,-1.46667 -5.63333,0.83334 -1.1,2.23333 0.6,0.33333 3.53333,5.86667 v 4.73333 l 6.2,6.16667 v 2.66667 l -2.4,1.36666 0.16667,0.0667 7.53333,3.2 3.2,3.56667 1.53334,2.1 4.13333,1.86666 4.9,-0.16666 8.1,3.36666 4.53333,0.56667 5.66667,-1.3 2.33333,-1.83333 0.3,-1.56667 -4.33333,-4.9 h -4.73333 v -1.7 l 1.7,-1.9 v -2.06667 L 436.3,434.66667 435.93333,431.63333 438,430.7 v -2.63333 l -2.26667,-0.4 -0.16666,-2.83334 -0.0334,-0.2 -1.9,-0.13333 -3.13333,-2.3 -0.83334,-2.7 -5.83333,-0.43333 -4.36667,-0.4 -0.43333,-2.5 1.46667,-3.13334 -2.7,2.3 -4.16667,-0.43333 -0.83333,-1.46667 2.9,-3.93333 z" />
<path id="departement83" style="fill:#F2EDEA;stroke:#D8D0CA;stroke-width:0.5;stroke-linejoin:round" d="m 488.3,440.73333 -3.16667,0.13334 -1.5,1.53333 -5.66666,-0.2 -4.9,3.56667 L 469.7,443.5 l -5.3,1.7 -0.93333,1.9 -3.76667,2.83333 -6.8,-4.53333 -5.5,1.8 -0.26667,1.46667 0.0999,-0.0667 3.4,2.26667 -4.53333,3.03333 -1.86667,3.76667 2.26667,1.86666 -0.2,3.96667 3.6,3.4 -0.96667,0.76667 -4.13333,-0.2 v 1.5 l 1.86666,0.93333 v 0.56667 l -1.7,1.53333 0.96667,1.13333 h 1.5 l 1.5,1.5 0.2,1.13334 -1.9,1.13333 -1.5,1.7 -0.2,4.13333 0.56667,0.76667 3.73333,1.66667 1.03333,4.16666 2.3,0.43334 2.1,-1.46667 3.73334,-2.3 6.46666,0.63333 -0.2,1.66667 -2.1,1.03333 5,0.23334 -1.23333,-1.26667 -0.43333,-2.7 2.7,-1.86667 3.13333,1.03334 1.26667,0.4 1.03333,1.26666 1.46667,-1.03333 0.4,-2.73333 1.66666,-1.43334 h 4.36667 l 1.26667,-1.9 2.9,0.83334 3.33333,-1.43334 V 473.3 l -4.36667,0.2 3.33334,-2.06667 1.66666,-2.3 0.43334,-3.33333 6.03333,-0.83333 3.36667,-3.76667 -2.33334,-2.4 v -1.33333 l -1.13333,-1.13334 1.5,-1.3 -0.36667,-2.1 L 495.69995,452 h -1.3 l -2.26667,-2.26667 -0.4,-3.96666 -2.43333,-1.13334 -2.46667,-0.16666 -0.93333,-2.26667 2.4,-1.46667 z" />
<path id="departement04" style="fill:#F2EDEA;stroke:#D8D0CA;stroke-width:0.5;stroke-linejoin:round" d="m 494.76667,388.63333 -2.26667,3.4 -3.2,1.9 -1.13333,2.26667 -2.83334,0.16667 v 2.06666 l -0.76666,1.13334 -1.13334,2.83333 -6.76666,-0.16667 -3.2,-1.7 -2.1,1.5 -3.93334,-0.2 -0.96666,1.33334 h 0.96666 l 0.56667,3.56666 -0.96667,0.4 -3.56666,-2.26666 v -1.33334 l -2.06667,-1.7 h -1.13333 v 1.9 l -1.7,0.36667 -3.6,2.06667 -2.26667,3.8 -0.56667,1.86666 1.33334,0.36667 0.2,3.03333 h -1.33334 l -2.06666,-1.9 -1.13334,0.2 0.56667,1.7 3.2,3.56667 -2.06667,0.76667 -1.5,-0.93334 h -3.8 l -3.2,3 -0.0334,-0.0334 -0.13334,1.23333 -1.23333,-1.46667 -1.66667,-1.46666 -1.06666,3.13333 -1.86667,1.66667 -0.8,-0.0667 0.0334,0.2 0.16666,2.83333 2.26667,0.4 v 2.63334 l -2.06667,0.93333 0.36667,3.03333 3.76667,1.86667 v 2.06667 l -1.7,1.9 v 1.7 H 443.1 l 4.33333,4.9 -0.0334,0.0999 5.5,-1.8 6.8,4.53334 3.76666,-2.83334 0.93334,-1.9 5.3,-1.7 3.36666,2.26667 4.9,-3.56667 5.66667,0.2 1.5,-1.53333 3.16667,-0.13333 0.0667,-0.0334 -0.76666,-1.9 0.93333,-1.13333 -0.36667,-1.5 h 3 l 0.76667,-0.93334 2.83333,-1.53333 2.26667,1.53333 1.5,-0.96666 -3.56667,-3.2 -3.8,-3.56667 -1.3,-0.4 -0.2,-2.83333 -2.26666,-3.36667 0.76666,-4.9 1.13334,-2.66667 2.06666,-1.7 0.2,-2.63333 2.83334,-1.5 0.43333,-0.16667 v -4.03333 l 2.93333,-0.4 -1.66666,-1.46667 -2.1,-0.63333 -1.03334,-2.7 0.83334,-1.86667 3.73333,-3.96666 -0.6,-2.93334 0.53333,-0.56666 -2.7,-0.13334 z" />
<path id="departement06" style="fill:#F2EDEA;stroke:#D8D0CA;stroke-width:0.5;stroke-linejoin:round" d="M 494.83333,407.33333 494.4,407.5 l -2.83333,1.5 -0.2,2.63333 -2.06667,1.7 -1.13333,2.66667 -0.76667,4.9 2.26667,3.36667 0.2,2.83333 1.3,0.4 3.8,3.56667 3.56666,3.2 -1.5,0.96666 -2.26666,-1.53333 -2.83334,1.53333 -0.76666,0.93334 h -3 l 0.36666,1.5 L 487.6,438.8 l 0.76667,1.9 -2.46667,1.5 0.93333,2.26667 2.46667,0.16666 2.43333,1.13334 0.4,3.96666 L 494.4,452 h 1.3 l 2.46667,0.93333 0.36666,2.1 -1.5,1.3 1.13334,1.13334 V 458.8 l 2.33333,2.4 0.16667,-0.2 0.2,-4.76667 4.16666,0.83334 1.46667,-1.9 2.1,0.43333 0.2,-6.46667 4.8,-0.4 4.16667,-3.76666 H 521.5 l 0.2,-2.3 3.76667,-2.26667 -2.1,-4.8 3.13333,-2.7 -0.63333,-3.13333 4.6,-1.46667 L 531.7,423.73333 531.1,420.6 530.03333,418.73333 529.2,416 l -3.1,0.23333 -9.8,3.53334 h -3.13333 l -5.4,-4.36667 -5.43334,-1.46667 H 499.2 v -3.76666 l -4.36667,-2.7 z" />
<path id="departement05" style="fill:#F2EDEA;stroke:#D8D0CA;stroke-width:0.5;stroke-linejoin:round" d="M 477.16667,361.76667 475.3,362.6 l -0.43333,3.13333 -3.73334,0.43334 L 470.5,363.23333 469.26667,362 465.5,362.4 l -1.46667,1.26667 -0.83333,4.36666 0.63333,1.03334 4.36667,0.43333 0.83333,2.7 1.66667,0.83333 V 377.6 l -3.96667,-0.2 -1.66666,1.86667 -4.76667,-0.83334 -2.7,2.3 -1.9,-0.83333 -2.7,2.1 1.03333,1.86667 -1.66666,1.66666 h -5.2 v 2.5 l 1.66666,0.83334 -0.63333,1.46666 -3.53333,1.43334 L 440.3,392.2 l -1.26667,3.96667 -0.2,2.5 2.3,1.86666 -2.3,2.7 -2.9,-1.46666 -3.33333,-0.2 -0.43333,1.86666 2.1,1.46667 -2.53334,1.66667 0.86667,3.53333 7.06667,1.9 1.26666,2.7 2.06667,0.4 -0.7,6.5 0.0334,0.0334 3.2,-3 h 3.8 l 1.5,0.93333 2.06666,-0.76667 -3.2,-3.56666 -0.56666,-1.7 1.13333,-0.2 2.06667,1.9 h 1.33333 l -0.2,-3.03334 -1.33333,-0.36666 0.56666,-1.86667 2.26667,-3.8 3.6,-2.06667 1.69995,-0.36672 v -1.9 H 461.4 l 2.06667,1.7 v 1.33334 l 3.56666,2.26666 0.96667,-0.4 -0.56667,-3.56666 h -0.96666 l 0.96666,-1.33334 3.93334,0.2 2.1,-1.5 3.2,1.7 6.76666,0.16667 1.13334,-2.83333 0.76666,-1.13334 v -2.06666 l 2.83334,-0.16667 1.13333,-2.26667 3.2,-1.9 2.26667,-3.4 2.7,0.13334 1.96666,-2.13334 2.26667,0.2 v -1.86666 l -2.9,-1.46667 -0.63333,-6.03333 -2.3,-0.83334 -2.9,0.43334 -5.43334,-2.73334 L 486.7,368.1 l -3.1,-1.03333 -1.06667,-2.1 -1.36666,-3 z" />
<path id="departement48" style="fill:#FDECE3;stroke:#EA5B1C;stroke-width:0.8;stroke-linejoin:round" d="m 342.16667,375.73333 -5.83334,2.1 -1.66666,3.73334 -3.73334,-2.5 -2.93333,9.16666 -3,6.9 4.36667,5.36667 -0.3,4.13333 L 332,406.7 v 5 l 0.9,7.06667 3.53333,1.5 -0.3,2.33333 5,-0.86667 1.76667,0.86667 -1.1,0.96667 6.43333,4.3 5.5,-1.13334 0.93334,-1.33333 -0.76667,-1.86667 2.26667,-0.56666 3.2,3 5.46666,0.56666 2.46667,-3.76666 v -3.2 l 1.5,-1.7 -1.33333,-0.36667 v -4.33333 l -3,-3.2 2.46666,-0.4 1.3,-1.13334 1.03334,-2 -1.03334,-0.63333 0.6,-4.4 -3.53333,-3.83333 -1.46667,-7.66667 -5.3,-6.76667 -3.86666,0.93334 -0.83334,-2.9 h -2.1 l -0.4,2.5 -5.4,1.66666 z" />
<path id="departement03" style="fill:#F2EDEA;stroke:#D8D0CA;stroke-width:0.5;stroke-linejoin:round" d="m 321.73333,264.5 -2.9,3.73333 -1.66666,0.2 -1.86667,1.9 -2.1,-2.3 -5.6,5.63334 V 277 l 1.03333,0.83333 0.2,1.66667 -2.9,2.26667 L 303.2,280.93333 298,282 l -2.7,3.1 -1,2.13333 0.16667,-0.0334 2.5,3.53333 v 2.5 l 1.43333,1.86667 1.46667,-1.86667 1.66666,2.93333 2.3,0.83334 2.3,5.40005 0.0999,1.56667 3.16667,2.46666 1.7,-0.76666 1.33333,-3.2 1.3,-0.36667 v -1.7 l 2.26667,-0.2 0.2,1.13333 2.83333,-3.2 h 3.2 l 0.56667,1.13334 -1.5,2.06666 2.23333,2.46667 0.4,1.5 5.26667,3.03333 6.4,0.93334 1.9,-0.2 2.83333,0.56666 2.43333,-1.5 1.9,0.93334 0.36667,2.63333 2.46667,0.56667 3.2,-0.16667 0.93333,2.26667 2.93333,1.16666 0.0999,-1.03333 5,-0.23333 -0.4,-11.86667 -1.46667,-2.9 0.6,-2.3 3.46667,-0.6 0.1,-0.23333 4.36666,-3.33334 0.2,-8.13333 -1.46666,-2.06667 h -3.33334 l -1.23333,-1.66666 h -3.53333 L 355.93317,279.9 v -3.13333 l -4.2,-7.9 -2.06666,-1.46667 -3.96667,5.43333 -1.66667,0.4 -0.63333,-2.7 -1.86667,-0.83333 -0.83333,1.66667 h -3.1 L 337.16651,269.5 335.06667,270.73333 332.8,272 l -2.5,-2.73333 -3.56667,-1.66667 -0.2,-2.7 z" />
<path id="departement30" style="fill:#FDECE3;stroke:#EA5B1C;stroke-width:0.8;stroke-linejoin:round" d="m 369.26667,406.43333 -1.03334,2 -1.3,1.13334 -2.46666,0.4 3,3.2 V 417.5 l 1.33333,0.36667 -1.5,1.7 v 3.2 l -2.46667,3.76666 -5.46666,-0.56666 -3.2,-3 -2.26667,0.56666 0.76667,1.86667 -0.93334,1.33333 -5.5,1.13334 -6.43333,-4.3 -1.23333,1.1 v 2.96666 L 338.2,428.2 l 0.6,2.36667 2.93333,0.6 h 3.23334 l 0.9,4.1 -3.83334,1.76666 V 438.9 l 3,1.03333 v 1.7 L 346.36667,442.4 347.5,441.43333 h 1.5 l 0.76667,1.7 h 2.26666 l 1.13334,-3.96666 h 1.86666 l 2.83334,-3.56667 3.4,0.36667 0.56666,4.9 1.3,1.53333 2.1,-1.13333 3.56667,1.86666 1.33333,2.26667 6.2,3.76667 2.26667,5.3 v 2.8 l -3.96667,2.26666 -2.56666,2.3 3.2,0.23334 v 4.16666 L 380.03333,466 382.6,466.13333 384.46667,461.8 l 6.76666,-4.13333 -1.46666,-2.06667 1.76666,-4.7 6.16667,0.86667 1.5,-11.2 8.23333,-4.7 V 433.2 l -6.2,-6.16667 V 422.3 L 397.7,416.43333 390.33333,412.3 l -0.56666,3.23333 -2.96667,0.3 -0.86667,-3.23333 -2.96666,0.56667 L 382.4,417.3 l -2.36667,-0.86667 -5,-3.26666 -2.36666,1.2 v -5.9 z" />
<path id="departement11" style="fill:#FDECE3;stroke:#EA5B1C;stroke-width:0.8;stroke-linejoin:round" d="m 292.53333,467.7 -0.3,3.83333 -3.83333,-1.2 h -4.13333 l 0.3,-1.46666 -2.06667,0.3 -4.4,1.46666 -1.46667,-2.66666 -2.96666,2.66666 0.9,2.06667 -3.26667,1.46667 -0.56667,3.23333 -2.66666,1.2 2.36666,2.63333 -0.6,1.76667 10.33334,5 0.86666,7.1 v 3.83333 l 0.6,5 h -5.3 L 274.86667,506 l 6.76666,5.6 3.83334,-2.06667 4.7,5.6 -0.7,0.0667 0.9,0.53333 8.46666,-4.13333 -2.06666,-3.03333 L 296.6,505 h 19.76667 L 316,502.33333 320.53333,499.9 l 5.26667,4.13333 2.73333,1.26667 -0.16666,-5.96667 0.23333,-6.86666 -2.5,0.2 -2.1,-3.1 1.66667,-2.73334 3.53333,3.33334 3.13333,-2.5 2.1,-2.06667 0.26667,-2.2 -2.66667,-0.0999 -0.93333,-3 -2.63333,-0.2 -2.46667,-3.6 -1.9,0.2 -2.23333,-1.33333 -0.4,-3.2 -1.13334,0.56667 0.56667,2.26666 h -2.63333 l -0.2,3.76667 -3.93334,1.33333 -1.9,-3.96666 -2.63333,1.7 -2.26667,-1.7 -1.13333,-2.63334 1.9,-2.26666 -0.9,-2.43339 -0.23333,0.0667 h -6.2 L 294.3,467.7 Z" />
<path id="departement34" style="fill:#FDECE3;stroke:#EA5B1C;stroke-width:0.8;stroke-linejoin:round" d="m 357.86667,435.6 -2.83334,3.56667 h -1.86666 l -1.13334,3.96666 h -2.26666 l -0.76667,-1.7 h -1.5 l -1.13333,0.96667 -1.33334,-0.76667 v -1.7 l -3,-1.03333 v 1.1 l -3.53333,0.56667 -1.76667,1.5 L 337.3,445.6 h -3.23333 l -3.23334,-1.76667 h -1.76666 V 445.9 l 0.3,6.16667 h -3.53334 -1.76666 l -1.2,2.36666 -7.66667,2.63334 -2.93333,-2.03334 -1.76667,2.63334 -0.86667,2.93333 3.23334,2.96667 -1.2,3.83333 -4.46667,1.4 0.9,2.43333 -1.9,2.26667 1.13333,2.63333 2.26667,1.7 2.63333,-1.7 1.9,3.96667 3.93334,-1.33333 0.2,-3.76667 H 320.9 l -0.56667,-2.26667 1.13334,-0.56666 0.4,3.2 2.23333,1.33333 1.9,-0.2 2.46667,3.6 2.63333,0.2 0.93333,3 2.66667,0.0999 0.13333,-1.13334 7.5,-2.3 0.83334,-1.86666 5.83333,-0.2 1.86667,-2.3 11.26666,-8.96667 7.06667,-5 2.86667,0.2 2.56666,-2.3 3.96667,-2.26667 v -2.8 l -2.26667,-5.3 -6.2,-3.76666 -1.33333,-2.26667 -3.56667,-1.86667 -2.1,1.13334 -1.3,-1.53334 -0.56666,-4.9 z" />
<path id="departement66" style="fill:#FDECE3;stroke:#EA5B1C;stroke-width:0.8;stroke-linejoin:round" d="M 320.53333,499.9 316,502.33333 316.36667,505 H 296.6 l 0.16667,3.56667 2.06666,3.03333 -8.46666,4.13333 -0.9,-0.53333 -6.96667,0.5 -0.86667,1.76667 -3.53333,0.9 -2.36667,2.06666 -6.46666,1.5 0.36666,2.2 3.13334,2.93334 6.23333,1.66666 0.2,3.73334 3.33333,2.93333 2.5,-0.43333 L 288.6,530.6 l 4.36667,-0.83333 6.86666,2.3 5.83334,5 1.66666,-2.1 H 308.8 L 310.26667,536 311.5,535.4 l 0.2,-2.93333 6.26667,-1.46667 2.06666,-2.7 3.13334,-1.03333 h 4.36666 l 2.73334,2.9 L 333.6,530.4 v -3.33333 l -1.66667,-2.3 L 329,523.5 328.53333,505.3 325.8,504.03333 Z" />
<path id="departement15" style="fill:#F2EDEA;stroke:#D8D0CA;stroke-width:0.5;stroke-linejoin:round" d="m 304.9,345.3 -0.63333,2.3 1.03333,2.5 -1.26667,1.46667 h -2.06666 l -2.1,-2.3 -1.86667,-1.03334 -0.2,5.83334 -3.76667,2.3 -2.7,3.73333 0.63334,3.76667 -0.83334,1.66666 -1.06666,3.33334 H 288.4 l -1.66667,2.06666 L 288,372.2 l 0.83333,2.06667 -2.7,1.9 1.1,6.96666 3.53334,2.63334 -2.66667,6.2 2.66667,1.16666 -1.16667,3.53334 2.33333,0.3 1.76667,-2.93334 h 2.96667 l 0.56666,0.86667 h 6.5 l 1.16667,-2.63333 1.46667,-0.6 0.6,-4.7 h 1.46666 v -5 l 5.9,-5.03334 0.6,0.9 0.56667,3.83334 4.13333,-0.6 0.9,5.9 h 2.03334 l 0.6,5.9 1.83333,2.26666 3,-6.9 2.93333,-9.16666 3.73334,2.5 1.66666,-3.73334 5.33334,-1.93333 v -1.76667 l -1.13334,-1.7 -2.26666,-1.33333 1.13333,-1.7 -0.96667,-0.93333 1.13334,-0.36667 1.33333,-1.13333 -2.26667,-0.2 -1.13333,-1.5 L 337.13333,361.3 335.8,359.96667 334.86667,356.6 h -4.73334 l -0.93333,-2.66667 -1.5,-0.16666 -0.76667,1.5 -3,-0.2 -2.83333,-4.33334 -1.13333,-0.16666 -2.26667,-1.13334 -1.33333,1.3 H 313 l -1.7,-3.56666 z" />
<path id="departement43" style="fill:#F2EDEA;stroke:#D8D0CA;stroke-width:0.5;stroke-linejoin:round" d="m 339,348.1 -1.5,0.76667 v 1.3 l -2.26667,0.2 -2.06666,1.7 -3.76667,0.56666 -0.86667,1.23334 0.66667,0.0667 0.93333,2.66667 h 4.73334 l 0.93333,3.36667 1.33333,1.33333 0.36667,3.96667 1.13333,1.5 2.26667,0.2 -1.33333,1.13333 -1.13334,0.36667 0.96667,0.93333 -1.13333,1.7 2.26666,1.33333 1.13334,1.7 V 375.9 l 0.5,-0.16667 3.76666,9.6 5.4,-1.66666 0.4,-2.5 h 2.1 l 0.83334,2.9 3.86666,-0.93334 4.8,6.13334 3,-4.76667 5.4,-3.96667 h 5 l 1.66667,-5.2 3.33333,-0.23333 0.23334,-3.93333 h 3.1 l -0.6,-1.46667 -0.83334,-2.7 1.23334,-2.1 2.93333,-1.23333 1.23333,-5 -2.7,-3.13334 -3.33333,0.2 0.4,-3.96666 -6.66667,-2.9 -2.26666,0.2 -4.6,3.76666 -4.2,-1.36666 -0.83334,0.8 L 362.2,351.5 360.33333,349.6 359.2,351.86667 355.96667,351.7 l -1.5,-1.33333 L 353.33333,353 351.26667,352.06667 349.93333,349.6 h -1.7 l -1.5,-1.3 -2.26666,0.93333 -2.63334,0.2 -1.5,-0.96666 -0.93333,0.56666 z" />
<path id="departement63" style="fill:#F2EDEA;stroke:#D8D0CA;stroke-width:0.5;stroke-linejoin:round" d="m 319.03333,298.13333 -2.83333,3.2 -0.2,-1.13333 -2.26667,0.2 v 1.7 l -1.3,0.36667 -1.33333,3.2 -1.7,0.76666 -3.16667,-2.46666 0.3,4.9 1.66667,2.06666 0.83333,3.96667 -2.5,1.86667 -0.6,2.93333 -2.3,1.23333 -3.96666,2.3 0.4,1.86667 4.8,4.8 0.43333,2.93333 -1.9,3.1 v 2.93334 l 1.26667,1.46666 0.63333,3.53334 -0.4,1.43333 6.4,1.86667 1.7,3.56666 h 3.36667 l 1.33333,-1.3 2.26667,1.13334 1.13333,0.16666 2.83333,4.33334 3,0.2 0.76667,-1.5 0.83333,0.0999 0.86667,-1.23333 3.76667,-0.56667 2.06666,-1.7 2.26667,-0.2 v -1.3 l 1.5,-0.76666 0.4,0.93333 0.93333,-0.56667 1.5,0.96667 2.63334,-0.2 2.26666,-0.93333 1.5,1.3 h 1.7 l 1.33334,2.46666 2.06666,0.93334 1.13334,-2.63334 1.5,1.33334 3.23333,0.16666 1.13333,-2.26666 1.86667,1.9 2.63333,0.76666 0.83334,-0.8 -1.63334,-0.53333 -0.63333,-2.5 3.96667,-3.73333 -1.86667,-6.86667 -5.43333,-3.56667 -2.26667,-5.4 -2.5,-3.33333 0.63333,-4.6 1.86667,-1.86667 -3.33333,-2.7 0.0999,-0.83333 -2.93333,-1.16667 -0.93333,-2.26666 -3.2,0.16666 -2.46667,-0.56666 -0.36667,-2.63334 -1.9,-0.93333 -2.43333,1.5 -2.83333,-0.56667 -1.9,0.2 -6.4,-0.93333 -5.26667,-3.03333 -0.4,-1.5 -2.23333,-2.46667 1.5,-2.06667 -0.56667,-1.13333 h -3.2 z" />
<path id="departement65" style="fill:#FDECE3;stroke:#EA5B1C;stroke-width:0.8;stroke-linejoin:round" d="m 191.16667,457.1 -2.06667,1.1 0.36667,0.0334 3.53333,5.83333 -2.3,2.1 1.66667,2.5 2.5,3.73333 -2.06667,2.7 -3.33333,7.5 -5.63334,4.8 1.46667,2.93334 -1.26667,0.83333 -3.1,-0.63333 -0.86666,6.86666 -1.66667,1.26667 -0.33333,4.3 0.53333,-0.3 3.53333,2.1 4.16667,3.13333 0.4,2.5 3.33333,2.7 h 2.73334 l 6.86666,-2.93333 2.9,3.33333 3.96667,1.06667 1.46667,-2.5 1.86666,0.83333 4.03334,0.26667 -0.26667,-11.2 h 2.1 l 1.86667,0.93333 1.33333,-1.3 -0.2,-2.06666 2.63333,-1.53334 -0.93333,-3.93333 -1.13333,-0.96667 -2.26667,0.76667 1.13333,-1.9 -0.56666,-2.43333 -3.4,-2.46667 0.2,-1.7 1.9,-3.2 2.43333,-0.93333 v -1.33334 l 1.5,-2.26666 1,-1.4 -3.8,-1.96667 h -5.1 l -0.76667,-1.53333 H 208.9 l -0.76667,-1.7 H 205.7 l -0.76667,0.76666 H 202.1 l -0.16667,-1.7 -2.26666,-1.5 0.76666,-0.76666 0.36667,-1.86667 -0.56667,-0.56667 -1.13333,-3.03333 -2.46667,-0.36667 -2.43333,-1.33333 0.16667,-3.56667 h -3.2 z" />
<path id="departement64" style="fill:#F2EDEA;stroke:#D8D0CA;stroke-width:0.5;stroke-linejoin:round" d="m 183.63333,457.46667 -3,1.7 -6.03333,-0.2 -0.56667,-0.93334 -3.96666,1.33334 -3.03334,0.93333 -2.26666,-1.7 -2.43334,0.76667 -0.76666,-0.96667 h -3 l -1.9,0.96667 -4.9,-0.2 -2.63334,2.06666 -4.73333,-0.36666 -0.93333,1.33333 -1.13334,-0.4 1.5,-1.5 -2.63333,-2.06667 -3.2,2.83334 -5.46667,0.36666 -6,-3 -0.86666,1.53334 -4.8,5.83333 -3.73334,1.46667 -2.7,0.4 v 2.3 l 2.5,2.3 3.73334,0.2 0.2,2.7 2.93333,0.23333 0.83333,-1.9 3.96667,1.66667 2.5,0.63333 0.6,2.5 -1.43333,1.26667 V 483.5 l -2.93334,1.46667 -0.2,1.86666 1.86667,2.1 3.33333,1.03334 0.63334,-3.13334 1.86666,-2.06666 -0.2,2.7 1.46667,2.1 h 3.73333 l 1.66667,2.26666 5,0.83334 4.8,2.93333 h 7.9 l 0.43333,4.36667 5.4,4.16666 2.1,2.5 2.3,-1.23333 2.06667,-0.43333 1.03333,1.03333 1.9,-1.03333 3.63334,-2 0.33333,-4.3 1.66667,-1.26667 0.86666,-6.86667 3.1,0.63334 1.26667,-0.83334 -1.46667,-2.93333 5.63334,-4.8 3.33333,-7.5 2.06667,-2.7 -2.5,-3.73333 -1.66667,-2.5 2.3,-2.1 -3.53333,-5.83334 -5.63334,-0.4 z" />
<path id="departement40" style="fill:#F2EDEA;stroke:#D8D0CA;stroke-width:0.5;stroke-linejoin:round" d="m 149.13333,399.4 -6.6,3.4 -1.7,0.0667 -3.7,19.8 -4.8,18.33333 -1.46666,7.1 -1.23334,5 -3.1,5.33333 6,3 5.46667,-0.36666 3.2,-2.83334 2.63333,2.06667 -1.5,1.5 1.13334,0.4 0.93333,-1.33333 4.73333,0.36666 2.63334,-2.06666 4.9,0.2 1.9,-0.96667 h 3 l 0.76666,0.96667 2.43334,-0.76667 2.26666,1.7 3.03334,-0.93333 3.96666,-1.33334 0.56667,0.93334 6.03333,0.2 3,-1.7 -1.46666,-2.56667 1.46666,-3.96667 2.06667,-2.7 -0.63333,-3.53333 1.66666,-1.66667 -2.46666,-4.16666 2.06666,-2.5 2.3,-0.43334 2.06667,0.83334 2.93333,-2.5 1.03334,3.13333 1.03333,1.46667 2.3,-0.63334 -0.2,-2.7 0.66667,-1.46666 -0.5,-1.3 0.56666,-4.13334 2.26667,-2.26666 -1.13333,-1.33334 -2.46667,-0.2 -2.83333,-1.1 -4.13334,0.36667 -0.76666,-4.53333 -2.63334,-3.2 L 185.7,416 l 0.4,3.76667 V 420.9 l -3.6,0.16667 -3.76667,-1.3 -0.76666,-4.73334 -2.63334,-2.83333 -1.86666,-0.16667 -0.2,-1.7 L 171.2,409 l -3.4,-0.93333 0.93333,-1.13334 V 405.8 l -1.13333,-0.93333 -1.3,-1.13334 -3.8,0.56667 -2.23333,1.86667 -1.53334,0.2 -2.43333,-1.7 -3.6,1.5 -1.7,-1.13334 1.53333,-1.86666 L 152.7,400.7 Z" />
<path id="departement33" style="fill:#F2EDEA;stroke:#D8D0CA;stroke-width:0.5;stroke-linejoin:round" d="m 150.66667,336.23333 -3.33334,5 -1.03333,17.5 -2.7,17.7 -1.9,13.73334 -0.2,3.56666 1.46667,-4.8 2.9,-3.76666 4.16666,3.76666 0.43334,1.23334 1.23333,1.66666 -5.2,0.23334 -0.83333,-1.26667 -2.06667,0.83333 -0.43333,3.13334 -2.3,3.13333 v 4.76667 l -0.0334,0.2 1.7,-0.0667 6.6,-3.4 3.56667,1.3 -0.16667,2.46667 -1.53333,1.86666 1.7,1.13334 3.6,-1.5 2.43333,1.7 1.53333,-0.2 2.23334,-1.86667 3.8,-0.56667 1.3,1.13334 1.13333,0.93333 v 1.13333 l -0.93333,1.13334 3.4,0.93333 2.06666,1.33333 0.2,1.7 1.86667,0.16667 2.63333,2.83333 0.76667,4.73334 3.76667,1.3 3.6,-0.16667 v -1.13333 l -0.4,-3.76667 1.13333,0.36667 2.13333,2.6 3.33334,-0.53334 1.53333,-1.5 -0.2,-2.06666 -1.33333,-1.13334 0.4,-2.1 h 2.06666 l 2.06667,-1.3 -0.93333,-1.9 -0.56667,-2.83333 1.5,-2.63333 3.2,-4.9 1.9,-2.26667 1.7,-0.56667 0.36667,-1.86666 -2.26667,-0.2 -0.93333,-2.06667 0.73333,-2.06667 2.66667,-0.56666 1.86666,-0.56667 2.2,-0.3 -0.13333,-0.1 -0.16667,-4.13333 2.06667,-1.5 -2.63333,-1.7 -2.63334,3.2 -6.43333,0.2 -0.56667,-1.53333 -1.86666,-0.93334 1.5,-1.9 v -2.06666 l -0.76667,-1.13334 v -1.13333 l 1.9,-1.13333 0.56667,-3.36667 1.13333,-3.03333 -1.13333,-1.7 h -2.06667 l -1.1,-1.3 -1.06667,2.23333 -2.06666,-1.46667 -2.93334,1.46667 -2.5,-0.4 -4.76666,-4.8 -2.93334,-0.2 -0.83333,-6.66667 -5.43333,-0.63333 -0.2,-3.13333 -1.03334,1.03333 h -6.16666 l 0.3,1.33333 1.46666,6.03334 0.4,6.03333 -1.03333,1.66667 -1.03333,-5 -2.93334,-11.43334 -10.63333,-9.6 0.23333,-4.36666 -2.1,-0.2 z" />
<path id="departement24" style="fill:#F2EDEA;stroke:#D8D0CA;stroke-width:0.5;stroke-linejoin:round" d="m 223.83333,331.16667 -1.86666,3.33333 -2.93334,0.4 -0.2,5 -9.8,6.66667 -0.2,7.3 -3.76666,3.73333 -2.06667,1.9 -4.16667,-0.43333 -2.3,3.96666 -0.6,1.3 1.1,1.3 H 199.1 l 1.13333,1.7 -1.13333,3.03334 -0.56667,3.36666 -1.9,1.13334 V 376 L 197.4,377.13333 V 379.2 l -1.5,1.9 1.86667,0.93333 0.56666,1.53334 6.43334,-0.2 2.63333,-3.2 2.63333,1.7 -2.06666,1.5 0.16666,4.13333 3.03334,2.1 0.36666,3.93333 3.2,1.13334 1.9,-1.7 h 4.13334 l 2.26666,-1.86667 1.33334,0.2 0.36666,1.5 H 228.9 l 0.93333,-1.13333 1.5,0.2 1.7,1.86666 v 1.33334 l -1.5,0.93333 0.56667,1.33333 2.06667,0.16667 2.63333,-2.43333 h 2.26667 l 1.5,1.7 3.26666,1.36666 0.2,-0.53333 1.9,-1.86667 0.2,-3.13333 4.56667,-0.4 2.93333,-4.16667 -1.26666,-0.43333 -0.2,-2.26667 L 255.7,384.9 l 0.23333,-2.06667 1.66667,-1.06666 1.86667,-3.33334 -1.86667,-2.06666 v -2.3 l 1.43333,-1.23334 -1.86666,-2.93333 0.2,-4.56667 -4.56667,0.2 -1.86667,-1.26666 L 252.6,362.2 l -2.3,-1.86667 1.66667,-2.1 L 250.3,357.4 v -2.9 l 4.16667,-3.76667 -2.3,-1.86666 -1.23334,-3.13334 -4.4,-0.63333 -1.46666,-1.03333 L 248.2,342.6 l -1.03333,-1.43333 -4.56667,-0.63334 -1.06667,-4.16666 -6.66666,-0.63334 -1.46667,2.1 -1.43333,0.4 -1.9,-2.5 0.86666,-2.3 -1.06666,-2.06666 z" />
<path id="departement47" style="fill:#F2EDEA;stroke:#D8D0CA;stroke-width:0.5;stroke-linejoin:round" d="m 208.26667,387.6 -2.2,0.3 -1.86667,0.56667 -2.66667,0.56666 L 200.8,391.1 l 0.93333,2.06667 2.26667,0.2 -0.36667,1.86666 -1.7,0.56667 -1.9,2.26667 -3.2,4.9 -1.5,2.63333 0.56667,2.83333 0.93333,1.9 -2.06666,1.3 H 192.7 l -0.4,2.1 1.33333,1.13334 0.2,2.06666 -1.53333,1.5 -3.33333,0.53334 0.5,0.6 0.76666,4.53333 4.13334,-0.36667 2.83333,1.1 2.46667,0.2 1.13333,1.33334 -2.26667,2.26666 -0.56666,4.13334 0.5,1.3 0.8,-1.66667 2.46666,2.1 3.33334,-3.33333 1.46666,2.06666 3.53334,-0.63333 3.76666,-0.4 1.66667,-2.93333 6.23333,-0.6 3.13334,3.1 1.06666,-1.03334 L 228,430.1 l -0.83333,-2.9 3.13333,-0.83333 3.96667,-0.83334 -0.86667,-2.5 1.26667,-1.46666 L 235.7,417.6 l -2.3,-2.5 1.46667,-4.76667 L 238,412.2 l 4.6,-0.83333 -2.1,-4.6 -1.66667,-6.23334 4.16667,-0.2 0.83333,-2.2 -3.26666,-1.36666 -1.5,-1.7 H 236.8 L 234.16667,397.5 232.1,397.33333 231.53333,396 l 1.5,-0.93333 v -1.33334 l -1.7,-1.86666 -1.5,-0.2 L 228.9,392.8 h -4.16667 l -0.36666,-1.5 -1.33334,-0.2 -2.26666,1.86667 h -4.13334 l -1.9,1.7 -3.2,-1.13334 -0.36666,-3.93333 z" />
<path id="departement46" style="fill:#FDECE3;stroke:#EA5B1C;stroke-width:0.8;stroke-linejoin:round" d="m 263.96667,370.46667 -4.43334,2.06666 -0.63333,0.1 0.13333,0.2 -1.43333,1.23333 v 2.3 l 1.86667,2.06667 -1.86667,3.33333 -1.66667,1.06667 L 255.7,384.9 l -3.53333,0.43333 0.2,2.26667 1.26666,0.43333 L 250.7,392.2 l -4.56667,0.4 -0.2,3.13333 -1.9,1.86667 -1.03333,2.73333 -4.16667,0.2 1.66667,6.23333 1.76667,3.86667 2.66666,-0.1 0.16667,1.1 -1.5,1.7 1.13333,2.26667 h 1.7 l 1.86667,2.06667 h 1.7 l 1.33333,-1.5 0.36667,0.4 v 1.86666 l 0.56667,2.46667 3.96666,0.16667 3.2,-3.4 1.7,-0.16667 0.56667,0.93333 0.93333,2.06667 h 1.53334 l 0.56666,-3.76667 3.2,0.4 1.86667,-2.26666 3.03333,0.73333 4.53334,-2.06667 0.0334,0.4 1.46667,-1.53333 -1.9,-2.83333 -0.73333,-3.76667 2.43333,-2.06667 1.13333,0.36667 3.4,-3.76667 1.86667,0.2 0.76667,-0.96666 h 3.76666 l 1.33334,-1.5 0.36666,-1.16667 -1.7,-0.23333 1.16667,-3.53334 -2.66667,-1.16666 2.66667,-6.2 -3.53333,-2.63334 -1.2,-7.66666 -3.23334,-0.86667 -2.36666,2.33333 -1.16667,-2.06666 -3.53333,3.53333 -2.36667,0.3 -4.1,-5.86667 -5.3,-2.36666 z" />
<path id="departement09" style="fill:#FDECE3;stroke:#EA5B1C;stroke-width:0.8;stroke-linejoin:round" d="m 253.03333,476.13333 -1.33333,0.93334 -0.56667,1.13333 2.63334,1.9 0.76666,1.33333 -0.56666,1.1 -4.53334,0.4 -1.3,1.86667 0.16667,0.56667 1.7,0.56666 0.96667,1.33334 -1.13334,1.86666 -1.33333,-0.16666 -2.06667,-1.9 -2.46666,-0.73334 -2.43334,0.16667 -4.33333,2.63333 0.16667,3.6 1.13333,0.76667 -0.73333,2.8 -4.93334,1.33333 -1.86666,2.26667 v 3.76667 l 0.76666,1.13333 -1.76666,1.63333 1.13333,0.63334 6.43333,1.23333 h 2.73334 l 3.53333,4.6 8.96667,-0.43333 L 256.3,518.1 259.43333,516.83333 268.6,518.1 l 0.66667,3.83333 6.46666,-1.5 2.36667,-2.06666 3.53333,-0.9 L 282.5,515.7 l 7.66667,-0.56667 -4.7,-5.6 -3.83334,2.06667 -6.76666,-5.6 1.46666,-2.06667 h 5.3 l -0.6,-5 V 495.1 l -0.86666,-7.1 -10.33334,-5 0.6,-1.76667 -1.96666,-2.2 -1.66667,0.7 -2.26667,0.36667 -4.16666,-1.9 -1.13334,-0.36667 1.7,2.06667 -0.73333,1.7 -3.6,-0.36667 -0.16667,-1.9 -2.1,-2.83333 z" />
<path id="departement32" style="fill:#FDECE3;stroke:#EA5B1C;stroke-width:0.8;stroke-linejoin:round" d="m 221.73333,428.66667 -6.23333,0.6 -1.66667,2.93333 -3.76666,0.4 -3.53334,0.63333 -1.46666,-2.06666 -3.33334,3.33333 -2.46666,-2.1 -1.46667,3.13333 0.2,2.7 -2.3,0.63334 -1.03333,-1.46667 -1.03334,-3.13333 -2.93333,2.5 -2.06667,-0.83334 -2.3,0.43334 -2.06666,2.5 2.46666,4.16666 -1.66666,1.66667 0.63333,3.53333 -2.06667,2.7 -1.46666,3.96667 1.66666,2.93333 5.26667,0.36667 2.06667,-1.1 h 3.2 L 194.2,460.66667 196.63333,462 l 2.46667,0.36667 1.13333,3.03333 0.56667,0.56667 -0.36667,1.86666 -0.76666,0.76667 2.26666,1.5 0.16667,1.7 h 2.83333 L 205.7,471.03333 h 2.43333 l 0.76667,1.7 h 2.63333 l 0.76667,1.53334 h 5.1 l 3.8,1.96666 0.33333,-0.46666 2.06667,-1.13334 3.76667,-4.9 7,0.56667 3,2.06667 0.96666,-1.33334 1.5,-4.5 L 241.7,462.2 l 3.96667,-1.7 1.9,-0.76667 -0.56667,-1.7 -1.9,-0.2 -0.73333,-1.86666 h -1.53334 L 240.4,453.5 l 0.16667,-1.7 -3.2,-3.2 -0.56667,-2.03333 -2.06667,0.9 -0.56666,-1.13334 1.33333,-2.06666 -1.53333,-1.5 v -2.63334 l -1.3,-1.33333 -4.16667,-0.2 v -2.43333 l 2.26667,-1.7 v -1.9 l 2.46666,-1.13334 L 231.9,430.7 l -1.5,0.73333 h -3.03333 l -0.93334,-0.86666 -0.5,0.16666 -1.06666,1.03334 z" />
<path id="departement31" style="fill:#FFFFFF;stroke:#E7436E;stroke-width:1.6;stroke-dasharray:4,3;stroke-linejoin:round" d="m 261.33333,439.93333 -3.03333,1.13334 -0.93333,1.5 -1.13334,-1.3 -2.06666,-0.2 -0.4,1.9 -1.3,0.53333 1.86666,0.96667 -1.3,2.06666 L 248.3,447.86667 246.23333,445.4 h -1.86666 l -1.53334,0.93333 h -5.46666 l -0.56667,0.23334 0.56667,2.03333 3.2,3.2 -0.16667,1.7 2.43333,2.46667 h 1.53334 l 0.73333,1.86666 1.9,0.2 0.56667,1.7 -1.9,0.76667 -3.96667,1.7 -1.86667,4.33333 -1.5,4.5 -0.96666,1.33334 -3,-2.06667 -7,-0.56667 -3.76667,4.9 -2.06667,1.13334 -1.33333,1.86666 -1.5,2.26667 v 1.33333 l -2.43333,0.93334 -1.9,3.2 -0.2,1.7 3.4,2.46666 0.56666,2.43334 -1.13333,1.9 L 219.26667,493.1 220.4,494.06667 221.33333,498 218.7,499.53333 218.9,501.6 217.56667,502.9 215.7,501.96667 h -2.1 l 0.26667,11.2 8.46666,0.56666 0.43334,-10.23333 2.9,0.43333 4.3,2.5 1.76666,-1.63333 -0.76666,-1.13333 V 499.9 l 1.86666,-2.26667 4.93334,-1.33333 0.73333,-2.8 -1.13333,-0.76667 -0.16667,-3.6 4.33333,-2.63333 2.43334,-0.16667 2.46666,0.73334 2.06667,1.9 1.33333,0.16666 1.13334,-1.86666 -0.96667,-1.33334 -1.7,-0.56666 -0.16667,-0.56667 1.3,-1.86667 4.53334,-0.4 0.56666,-1.1 -0.76666,-1.33333 -2.63334,-1.9 0.56667,-1.13333 1.33333,-0.93334 1.3,0.36667 2.1,2.83333 0.16667,1.9 3.6,0.36667 0.73333,-1.7 -1.7,-2.06667 1.13334,0.36667 4.16666,1.9 2.26667,-0.36667 1.66667,-0.7 -0.4,-0.43333 2.66666,-1.2 0.56667,-3.23333 3.26667,-1.46667 -0.9,-2.06667 2.96666,-2.66666 1.46667,2.66666 4.4,-1.46666 0.83333,-0.13334 0.0667,-1.36666 V 465 l -2.26667,0.4 -2.83333,-0.76667 -2.46667,-3 L 274.9,460.3 l -4.9,-2.06667 -1.13333,-1.7 1.5,-0.56666 V 453.9 l -1.5,-1.7 -1.9,-3.03333 -0.16667,-2.63334 -0.56667,-0.36666 -2.26666,-2.66667 -0.93334,-2.8 z" />
<path id="departement82" style="fill:#FDECE3;stroke:#EA5B1C;stroke-width:0.8;stroke-linejoin:round" d="M 234.86667,410.33333 233.4,415.1 l 2.3,2.5 -1.03333,3.96667 -1.26667,1.46666 0.86667,2.5 -3.96667,0.83334 -3.13333,0.83333 0.83333,2.9 -1.56667,0.46667 0.93334,0.86666 H 230.4 l 1.5,-0.73333 1.33333,0.73333 -2.46666,1.13334 v 1.9 l -2.26667,1.7 V 438.6 l 4.16667,0.2 1.3,1.33333 v 2.63334 l 1.53333,1.5 -1.33333,2.06666 0.56666,1.13334 2.63334,-1.13334 h 5.46666 L 244.36667,445.4 h 1.86666 l 2.06667,2.46667 4.73333,-1.33334 1.3,-2.06666 -1.86666,-0.96667 1.3,-0.53333 0.4,-1.9 2.06666,0.2 1.13334,1.3 0.93333,-1.5 3.03333,-1.13334 L 262.7,440.56667 263.76667,438.8 261.9,436.73333 h 3.56667 L 266.6,434.66667 269.06667,432.4 H 266.6 l 0.76667,-3.2 6.4,-0.76667 2.46666,-1.5 3,-1.13333 0.96667,-0.96667 -1.16667,-3 1.7,-3.4 -3,-0.2 -0.36666,-4.7 -4.53334,2.06667 -3.03333,-0.73333 -1.86667,2.26666 -3.2,-0.4 -0.56666,3.76667 h -1.53334 L 261.7,418.43333 261.13333,417.5 l -1.7,0.16667 -3.2,3.4 L 252.26667,420.9 251.7,418.43333 v -1.86666 l -0.36667,-0.4 -1.33333,1.5 h -1.7 L 246.43333,415.6 h -1.7 l -1.13333,-2.26667 1.5,-1.7 -0.16667,-1.1 -2.66666,0.1 L 242.6,411.36666 238,412.2 Z" />
<path id="departement12" style="fill:#FDECE3;stroke:#EA5B1C;stroke-width:0.8;stroke-linejoin:round" d="m 314.33333,376.93333 -5.9,5.03334 v 5 h -1.46666 l -0.6,4.7 -1.46667,0.6 -1.16667,2.63333 h -6.5 l -0.56666,-0.86667 H 293.7 l -1.76667,2.93334 L 291.3,396.9 l -0.36667,1.16667 -1.33333,1.5 h -3.76667 l -0.76666,0.96666 -1.86667,-0.2 -3.4,3.76667 -1.13333,-0.36667 -2.43334,2.06667 0.73334,3.76667 1.9,2.83333 -1.46667,1.53333 0.33333,4.3 3,0.2 -1.7,3.4 1.33334,3.4 1.7,-0.96666 0.76666,1.7 2.43334,-2.43334 3.6,-0.2 3.56666,2.63334 6.23334,1.13333 2.26666,3.96667 3.2,1.5 1.7,4.33333 -0.2,1.7 2.06667,3.8 v 2.06667 l 3.76667,4.9 3.6,1.86666 2.26666,-0.56666 1.13334,-1.5 1.7,0.4 3.9,2.5 h 0.0334 1.73334 3.53333 l -0.3,-6.16667 v -2.06667 h 1.76667 l 3.23333,1.76667 h 3.23333 l -0.56666,-3.53333 1.76666,-1.5 L 342.03339,440 v -2.96667 l 3.83333,-1.76666 -0.9,-4.1 h -3.23333 l -2.93334,-0.6 -0.6,-2.36667 2.36667,-0.56667 v -2.96666 l 2.33333,-2.06667 -1.76666,-0.86667 -5,0.86667 0.3,-2.33333 -3.53334,-1.5 -0.9,-7.06667 v -5 l -2.93333,-2.06667 0.3,-4.13333 -6.2,-7.63333 -0.6,-5.9 h -2.03333 l -0.9,-5.9 -4.13334,0.6 -0.56666,-3.83334 -0.6,-0.9 z" />
<path id="departement81" style="fill:url(#mapGradTarn);stroke:#C24B16;stroke-width:1.3;stroke-linejoin:round" d="m 288.86667,423.33333 -3.6,0.2 -2.43334,2.43334 -0.76666,-1.7 -1.7,0.96666 -0.16667,-0.4 -0.96667,0.96667 -3,1.13333 -2.46666,1.5 -6.4,0.76667 -0.76667,3.2 h 2.46667 l -2.46667,2.26667 -1.13333,2.06666 H 261.9 l 1.86667,2.06667 -1.06667,1.76667 0.33333,0.13333 0.93334,2.8 2.26666,2.66667 0.56667,0.36666 0.16667,2.63334 1.9,3.03333 1.5,1.7 v 2.06667 l -1.5,0.56666 1.13333,1.7 4.9,2.06667 0.93333,1.33333 2.46667,3 L 281.13333,465.4 283.4,465 v 2.66667 l -0.0667,1.36666 1.23334,-0.16666 -0.3,1.46666 H 288.4 l 3.83333,1.2 0.3,-3.83333 H 294.3 l 6.46667,1.16667 h 6.2 l 4.7,-1.46667 1.2,-3.83333 -3.23334,-2.96667 0.86667,-2.93333 1.76667,-2.63334 2.93333,2.03334 7.66667,-2.63334 1.2,-2.36666 -3.9,-2.5 -1.7,-0.4 -1.13334,1.5 -2.26666,0.56666 -3.6,-1.86666 -3.76667,-4.9 V 442.4 l -2.06667,-3.8 0.2,-1.7 -1.7,-4.33333 -3.2,-1.5 -2.26666,-3.96667 -6.23334,-1.13333 z" />
<path id="departement38" style="fill:#F2EDEA;stroke:#D8D0CA;stroke-width:0.5;stroke-linejoin:round" d="m 424.43333,318.6 -1.36666,1.6 -1.36667,4.06667 -2.73333,1.36666 L 416.03333,322.9 H 414 l -0.23333,2.96667 2.96666,2.5 -4.53333,5.86666 -5.9,1.36667 -4.53333,1.6 2.93333,2.93333 0.7,1.36667 -4.53333,2.26667 -0.46667,6.56666 -0.13333,0.0667 1.26666,2.63333 3.63334,1.13334 2.5,-0.9 2.93333,-2.03334 3.86667,3.16667 h 3.16666 l 2.26667,3.16667 -0.93333,2.26666 0.46666,3.2 L 418.3,366.2 l 0.46667,1.13333 1.56666,-0.46666 3.63334,1.13333 4.76666,1.36667 2.03334,-1.36667 0.9,-1.56667 h 0.7 l 0.2,16.96667 1.13333,1.13333 h 2.96667 l 2.7,1.6 2.03333,1.6 2.06667,0.2 1.33333,1.13334 3.76667,0.43333 0.26666,-0.63333 -1.66666,-0.83334 v -2.5 h 5.2 l 1.66666,-1.66666 L 453,382 l 2.7,-2.1 1.9,0.83333 2.7,-2.3 4.76667,0.83334 1.66666,-1.86667 3.96667,0.2 v -4.56667 L 469.03333,372.2 468.2,369.5 463.83333,369.06667 463.2,368.03333 464.03333,363.66667 465.5,362.4 l -1.2,-1.63333 -2.26667,-1.36667 -1.36666,1.36667 0.46666,-1.83334 v -1.8 L 459.3,355.3 l 0.93333,-4.3 2.03334,-1.13333 -0.23334,-2.93334 -4.3,-4.3 h -1.6 L 455,344.2 l -2.7,-3.6 -1.6,0.2 -1.36667,2.96667 0.93334,1.8 -0.7,0.7 -1.8,-1.36667 -5.23334,-1.13333 -2.46666,-4.53334 V 337.4 l -2.5,-2.7 -0.26667,-1.16667 -8.33333,-10.16666 -0.93334,-2.93334 -1.8,-1.6 z" />
<path id="departement42" style="fill:#F2EDEA;stroke:#D8D0CA;stroke-width:0.5;stroke-linejoin:round" d="M 362.16667,296.56667 358.4,297.2 l -0.6,2.3 1.46667,2.9 0.4,11.86667 -5,0.23333 -0.2,1.86667 3.33333,2.7 -1.86667,1.86666 -0.63333,4.6 2.5,3.33334 2.26667,5.4 5.43333,3.56666 1.86667,6.86667 -3.96667,3.73333 0.63333,2.5 5.83334,1.9 4.6,-3.76666 2.26666,-0.2 6.66667,2.9 -0.4,3.96666 3.33333,-0.2 2.63334,3.03334 1.93333,-0.53334 3.6,-0.66666 0.93333,-4.1 4.96667,-2.93334 0.46667,-6.56666 0.16666,-0.0999 -2.43333,-0.36667 -2.26667,0.9 -1.83333,-1.13333 2.26667,-2.7 -0.66667,-2.03333 -7.03333,-1.13334 -5.9,-5.43333 v -1.83333 l 1.36666,-1.13334 v -1.56666 l -1.56666,-0.93334 1.33333,-2.03333 v -2.93333 l -2.7,-2.5 v -2.5 l -1.83333,-1.8 v -2.03334 l -0.9,-3.4 1.36666,-1.36666 0.23334,-4.06667 h 4.3 l 1.13333,-1.36667 -1.36667,-2.26666 v -2.03334 l -1.13333,-0.9 -0.8,4.26667 h -2.3 l -1.66667,1.66667 -1.26666,-1.26667 -6.66667,-1.03333 -2.5,1.46666 h -1.66667 l -0.4,-1.46666 L 363,300.1001 l -0.2,-3.33333 -0.63333,-0.2 z" />
<path id="departement07" style="fill:#F2EDEA;stroke:#D8D0CA;stroke-width:0.5;stroke-linejoin:round" d="m 400.26667,350.4 -4.83334,2.86667 -0.93333,4.1 -3.6,0.66666 -1.93333,0.53334 0.0667,0.0999 -1.23333,5 -2.93333,1.23334 -1.23334,2.1 0.83334,2.7 0.6,1.46666 h -3.1 l -0.23334,3.93334 -3.33333,0.23333 -1.66667,5.2 h -5 l -5.4,3.96667 -3,4.76666 0.5,0.63334 1.46667,7.66666 3.53333,3.83334 -0.6,4.4 4.43334,2.66666 v 5.9 l 2.36666,-1.2 5,3.26667 2.36667,0.86667 0.56667,-4.13334 2.96666,-0.56666 0.86667,3.23333 2.96667,-0.3 0.56666,-3.23333 6.76667,3.8 1.1,-2.23328 2.86667,-0.43334 0.23333,-4.4 -0.66667,-0.93333 -0.9,-0.2 v -1.6 l 0.66667,-1.6 -1.13333,-1.8 0.66666,-4.06667 2.73334,-3.2 v -4.5 l -1.13334,-5.23333 2.03334,-0.43333 0.46666,-2.26667 2.03334,-3.86667 L 407.2,376.4 l -1.8,-4.53333 -1.13333,-3.63334 -1.6,-6.33333 v -8.5 l -1.13334,-0.36667 z" />
<path id="departement26" style="fill:#F2EDEA;stroke:#D8D0CA;stroke-width:0.5;stroke-linejoin:round" d="m 410.6,351.23333 -2.93333,2.03334 -2.5,0.9 -2.5,-0.76667 v 8.5 l 1.6,6.33333 1.13333,3.63334 1.8,4.53333 -1.13333,2.93333 -2.03334,3.86667 -0.46666,2.26667 -2.03334,0.43333 1.13334,5.23333 v 4.5 l -2.73334,3.2 -0.66666,4.06667 1.13333,1.8 -0.66667,1.6 v 1.6 l 0.9,0.2 0.66667,0.93333 -0.23333,4.4 2.76666,-0.4 1.23334,1.46667 -0.6,4.16667 0.83333,1.03333 3.1,-3.13333 2.73333,-0.2 0.6,-1.66667 -3.53333,-0.43333 -0.6,-3.73334 2.26667,-3.53333 2.93333,-0.23333 2.9,2.73333 -2.9,3.93333 0.83333,1.46667 4.16667,0.43333 2.7,-2.3 -1.46667,3.13334 0.43334,2.5 4.36666,0.4 5.83334,0.43333 0.83333,2.7 3.13333,2.3 2.7,0.2 1.86667,-1.66667 1.06667,-3.13333 1.66666,1.46667 1.23334,1.46666 L 443,415.1 l -2.06667,-0.4 -1.26666,-2.7 -7.06667,-1.9 -0.86667,-3.53333 2.53334,-1.66667 -2.1,-1.46667 0.43333,-1.86666 3.33333,0.2 2.9,1.46666 2.3,-2.7 -2.3,-1.86666 0.2,-2.5 L 440.3,392.2 444.66667,391.76667 448.2,390.33333 448.56667,389.5 444.8,389.06667 l -1.33333,-1.13334 -2.06667,-0.2 -2.03333,-1.6 -2.7,-1.6 H 433.7 l -1.13333,-1.13333 -0.2,-16.96667 h -0.7 l -0.9,1.56667 -2.03334,1.36667 -4.76666,-1.36667 -3.63334,-1.13333 -1.56666,0.46666 L 418.3,366.2 l 1.13333,-3.16667 -0.46666,-3.2 L 419.9,357.56667 417.63333,354.4 h -3.16666 z" />
<path id="departement19" style="fill:#F2EDEA;stroke:#D8D0CA;stroke-width:0.5;stroke-linejoin:round" d="m 283.46667,328.13333 -0.9,2.26667 -3.4,0.66667 -1.33334,2.26666 h -1.6 l -2.26666,-0.66666 -1.6,2.7 L 269.9,335.6 l -1.6,2.93333 h -2.03333 l -1.6,1.6 -4.06667,-0.46666 -1.36667,2.26666 -1.56666,-0.2 -2.73334,3.4 -2.5,-0.93333 -1.16666,2.36667 0.9,2.3 2.3,1.86666 L 250.3,354.5 v 2.9 l 1.66667,0.83333 -1.66667,2.1 2.3,1.86667 -1.66667,2.06667 1.86667,1.26666 4.56667,-0.2 -0.2,4.56667 1.73333,2.73333 0.63333,-0.0999 4.43334,-2.06667 5.3,2.36667 4.1,5.86666 2.36666,-0.3 3.53334,-3.53333 1.16666,2.06667 2.36667,-2.33334 3.23333,0.86667 0.1,0.7 2.7,-1.9 L 288,372.20009 286.73333,370.93343 288.4,368.86676 h 1.66666 l 1.06667,-3.33333 0.83333,-1.66667 -0.63333,-3.76667 2.7,-3.73333 3.76667,-2.3 0.2,-5.83333 1.86666,1.03333 2.1,2.3 h 2.06667 l 1.26667,-1.46667 -1.03334,-2.5 1.03334,-3.73333 -0.63334,-3.53333 -1.26666,-1.46667 v -2.93333 l 1.9,-3.1 -0.43334,-2.93334 -0.46666,-0.46666 -2.1,1.63333 h -4.1 l -1.33334,2.03333 h -2.5 l -2.03333,-2.03333 -0.93333,-1.36667 h -5.2 l -1.13334,-1.56666 h -1.6 z" />
<path id="departement23" style="fill:#F2EDEA;stroke:#D8D0CA;stroke-width:0.5;stroke-linejoin:round" d="m 273.2,285.73333 -1.23333,3.33334 -3.76667,-0.2 -0.83333,-0.43334 -2.5,0.23334 L 263,287.4 l -3.6,4.13333 0.0667,3.06667 -2.5,4.96667 0.46666,2.5 2.7,0.66666 1.83334,4.53334 1.8,1.83333 -0.66667,8.6 3.83333,-1.13333 1.6,2.03333 -2.5,2.03333 V 322.7 l 2.03334,0.2 3.63333,-0.2 1.13333,-1.6 h 0.9 l -0.43333,2.73333 2.93333,1.33334 L 278.9667,327 v 1.13333 h -1.6 l 0.46666,2.7 1.06667,0.66667 0.26667,-0.43333 3.4,-0.66667 0.9,-2.26667 h 1.6 L 286.2,329.7 h 5.2 l 0.93333,1.36667 2.03334,2.03333 h 2.5 L 298.2,331.06667 h 4.1 l 2.1,-1.63334 -4.33333,-4.33333 -0.4,-1.86667 3.96666,-2.3 2.3,-1.23333 0.6,-2.93333 2.5,-1.86667 -0.83333,-3.96667 -1.66667,-2.06666 -0.4,-6.46667 -2.3,-5.4 -2.3,-0.83333 -1.66666,-2.93334 L 298.4,295.1 l -1.43333,-1.86667 v -2.5 L 294.46667,287.2 287.6,288.03333 283.63333,287 Z" />
<path id="departement87" style="fill:#F2EDEA;stroke:#D8D0CA;stroke-width:0.5;stroke-linejoin:round" d="m 255.5,288.86667 -1.86667,1.86666 -5.23333,-0.4 -0.6,-0.13333 -3.96667,0.73333 -2.3,1.9 v 2.5 l -4.56666,0.2 -2.7,3.13334 L 232.6,299.9 l 1.43333,1.66667 -0.2,5.63333 -1.03333,1.86667 1.66667,1.86666 2.9,0.23334 0.63333,2.9 0.2,1.86666 -3.73333,0.83334 L 232.6,317.4 l 0.4,5.2 -2.5,1.66667 -2.1,0.63333 -1.03333,2.93333 -1.66667,0.2 -0.7,3.16667 4.86667,0.16667 1.06666,2.06666 -0.86666,2.3 1.9,2.5 1.43333,-0.4 1.46667,-2.1 6.66666,0.63334 1.06667,4.16666 4.56667,0.63334 1.03333,1.43333 -3.13333,1.46667 1.46666,1.03333 4.4,0.63333 0.33334,0.83334 1.16666,-2.36667 2.5,0.93333 2.73334,-3.4 1.56666,0.2 1.36667,-2.26666 4.06667,0.46666 1.6,-1.6 H 268.3 l 1.6,-2.93333 2.46667,-0.23333 1.6,-2.7 2.26666,0.66666 h 1.6 L 278.9,331.5 l -1.06667,-0.66667 -0.46666,-2.7 h 1.6 V 327 L 276.23333,325.16667 273.3,323.83333 273.73333,321.1 h -0.9 l -1.13333,1.6 -3.63333,0.2 -2.03334,-0.2 v -2.06667 l 2.5,-2.03333 -1.6,-2.03333 L 263.1,317.7 l 0.66667,-8.6 -1.8,-1.83333 -1.83334,-4.53334 -2.7,-0.66666 -0.46666,-2.5 2.5,-4.96667 -0.0667,-3.06667 -0.56667,0.66667 z" />
<path id="departement86" style="fill:#F2EDEA;stroke:#D8D0CA;stroke-width:0.5;stroke-linejoin:round" d="m 201.33333,240.73333 -3.96666,4.16667 -1,1.73333 0.33333,5.13334 1.8,-0.23334 0.23333,2.26667 0.7,3.63333 1.13334,2.5 L 199.2,261.5 l 0.66667,1.13333 -0.9,1.6 V 264.9 l 1.6,1.83333 v 1.13334 l -0.7,1.8 -2.26667,3.4 2.26667,0.9 0.7,1.6 -0.93334,2.46666 -0.2,1.13334 -1.36666,2.26666 v 1.6 l 0.9,0.23334 v 4.76666 l 1.6,1.13334 -0.7,1.56666 0.23333,1.36667 1.8,2.03333 0.93333,-1.36666 v -1.13334 l 1.8,-0.9 1.36667,0.9 v 3.4 l -1.36667,1.6 -1.13333,2.7 1.56667,2.5 3.2,0.9 -0.7,2.06667 -2.96667,0.5 2.73333,3.33333 3.63334,-0.23333 3.16666,-1.13333 3.2,1.83333 1.13334,-0.9 -0.23334,-2.96667 1.8,-1.36666 1.6,2.73333 1.33334,1.36667 3.86666,-1.6 1.6,-1.8 h 3.6 L 233.9,305.5 234.03333,301.56667 232.6,299.9 l 1.66667,-1.23333 2.7,-3.13334 4.56666,-0.2 v -2.5 l 2.3,-1.9 5.63334,-1.03333 0.4,-3.13333 -2.26667,-1.23334 -1.26667,-4.36666 -3.33333,-0.43334 -2.06667,-2.06666 -3.96666,-3.13334 0.83333,-2.5 v -3.96666 l -3.76667,-3.73334 -0.4,-2.93333 -3.56666,-3.73333 -1.23334,-5 -1.46666,-0.63334 -1.66667,-2.3 -1.66667,1.03334 0.43334,2.3 -5.43334,1.26666 H 212.8 l 0.2,-2.5 v -3.96666 L 208,247.4 v -2.5 l -3.96667,-0.83333 -0.83333,-3.33334 z" />
<path id="departement16" style="fill:#F2EDEA;stroke:#D8D0CA;stroke-width:0.5;stroke-linejoin:round" d="m 220.03333,303.86667 -1.8,1.36666 0.23334,2.96667 -1.13334,0.9 -3.2,-1.83333 -3.16666,1.13333 -3.63334,0.23333 L 204.6,305.3 l -0.86667,0.16667 -3.63333,1.8 -2.73333,0.7 v 1.56666 L 195.8,311.36667 196.23333,312.5 194.2,313.63333 192.4,320.2 l -0.46667,4.3 -1.56666,0.66667 -2.26667,-0.2 -0.46667,-1.13334 h -2.5 L 183.8,324.96667 h -2.96667 l -2.5,1.33333 1.83334,0.7 0.23333,4.76667 0.9,0.2 -1.6,1.83333 1.83333,1.13333 L 184,337.2 l 1.36667,2.26667 1.6,1.56666 L 186.5,343.3 l -0.9,0.9 1.36667,1.36667 v 1.6 l -2.73334,2.26666 1.13334,0.9 1.6,0.46667 v 0.43333 l -2.26667,0.9 0.2,1.13334 1.36667,0.7 4.3,-0.7 1.83333,2.03333 1.36667,1.83333 4.43333,3 0.63333,-1.06666 L 203,359.5 l 2.06667,-1.9 3.76666,-3.73333 0.2,-7.3 9.8,-6.66667 0.2,-5 2.93334,-0.4 1.86666,-3.33333 1.16667,0.0334 0.7,-3.16666 1.66667,-0.2 1.03333,-2.93334 2.1,-0.63333 2.5,-1.66667 -0.4,-5.2 1.86667,-0.63333 3.73333,-0.83333 -0.2,-1.86667 -0.63333,-2.9 -2.9,-0.23333 -1.66667,-1.86667 1.03333,-1.86667 0.0667,-1.7 -1.86667,-0.93333 h -3.6 l -1.6,1.8 -3.86666,1.6 -1.33334,-1.36667 -1.6,-2.73333 z" />
<path id="departement36" style="fill:#F2EDEA;stroke:#D8D0CA;stroke-width:0.5;stroke-linejoin:round" d="m 271.7,236.2 -1.33333,0.46667 -2.7,-0.16667 -3.13334,1.06667 L 263.8,239.2 l -0.3,-0.6 -3.6,0.16667 -1.8,1.5 -2.1,0.3 -0.3,1.03333 1.66667,2.23333 L 256.9,245.8 l -1.93333,0.13333 v 1.63334 l -1.5,1.36666 -1.63334,2.7 -1.5,-1.36666 -2.23333,-0.43334 -3.3,1.2 -0.76667,3.73334 -1.03333,3 -1.63333,8.5 -2.26667,2.1 -1.83333,0.16666 0.53333,0.53334 v 3.96666 l -0.83333,2.5 3.96666,3.13334 2.06667,2.06666 3.33333,0.43334 1.26667,4.36666 2.26667,1.23334 -0.4,3.13333 -1.66667,0.3 0.6,0.13333 5.23333,0.4 1.86667,-1.86666 3.33333,3.33333 4.16667,-4.8 1.86667,1.26667 2.5,-0.23334 0.83333,0.43334 3.76667,0.2 1.23333,-3.33334 10.43333,1.26667 3.96667,1.03333 1.8,-0.2 0.1,-1.66666 2.1,-2.1 -0.43334,-1.8 -1.2,-2.36667 0.43334,-0.9 0.16666,-2.7 0.73334,-0.9 0.16666,-0.6 -1.8,-1.63333 -0.59994,-2.1 -2.83334,-1.5 v -1.8 l 2.06667,-1.2 v -1.2 l -1.93333,-1.63334 -0.6,-1.03333 1.5,-0.76667 -0.13334,-1.33333 2.36667,-1.96667 -0.13333,-0.86666 h -1.93334 l -1.2,-1.36667 v -0.73333 l 1.03334,-1.8 v -1.33334 l -2.4,-3.16666 0.46666,-2.83334 -1.36666,-1.03333 -2.83334,0.13333 -2.23333,0.9 -3,-0.43333 -1.5,-1.2 -0.3,-0.9 2.4,-1.96667 0.16667,-2.36666 -3.16667,-1.8 z" />
<path id="departement18" style="fill:#F2EDEA;stroke:#D8D0CA;stroke-width:0.5;stroke-linejoin:round" d="m 293.9,214.23333 -3.03333,1.5 -2.7,2.23334 0.13333,0.9 2.7,0.73333 1.06667,2.26667 1.63333,0.6 -0.6,1.33333 v 2.23333 l -2.53333,1.06667 -1.96667,3.56667 -0.13333,1.96666 0.73333,0.9 0.3,1.03334 -2.66667,1.5 -4.2,0.43333 -1.03333,-1.16667 -1.2,0.13334 -1.2,1.33333 0.13333,2.7 -2.66666,0.16667 -0.16667,2.36666 -2.4,1.96667 0.3,0.9 1.5,1.2 3,0.43333 2.23333,-0.9 2.83334,-0.13333 1.36666,1.03333 -0.46666,2.83334 2.4,3.16666 v 1.33334 l -1.03334,1.8 V 256.4 l 1.2,1.36667 h 1.93334 l 0.13333,0.86666 -2.36667,1.96667 0.13334,1.33333 -1.5,0.76667 0.6,1.03333 1.93333,1.63334 v 1.2 l -2.06667,1.2 v 1.8 l 2.83334,1.5 0.6,2.1 1.8,1.63333 -0.16667,0.6 -0.73333,0.9 -0.16667,2.7 -0.43333,0.9 1.2,2.36667 0.43333,1.8 -2.1,2.1 -0.0999,1.66666 4.9,-0.6 1,-2.13333 2.7,-3.1 5.2,-1.06667 2.73334,0.83334 2.9,-2.26667 -0.2,-1.66667 L 307.60005,277 v -3.33333 l 5.6,-5.63334 2.1,2.3 1.86667,-1.9 1.66667,-0.2 2.9,-3.73333 4.8,0.4 0.0667,1.13333 1.6,-5.1 -1.03333,-1.86666 0.2,-2.7 0.63333,-5.43334 -2.3,-2.26666 0.43334,-5 -2.1,-4.4 -0.2,-2.9 -3.76667,-2.93334 -0.60005,-2.5 1.86666,-2.7 v -3.96666 l -2.1667,-2.53334 L 317.03333,222.6 316,222.16667 314.5,220.2 l -0.9,-0.13333 -0.6,0.3 -0.16667,3 L 311.5,223.5 l -1.03333,-0.9 -2.4,-3.3 -0.9,-1.16667 -3.43334,-0.16666 -1.66666,-2.1 h -1.33334 l -0.6,0.76666 -2.23333,0.3 -1.8,-1.66666 -2.1,-0.9 -0.0999,-0.13334 z" />
</g>
</svg>
